<svg xmlns="http://www.w3.org/2000/svg" viewBox="0 0 256 256">
  <defs>
    <linearGradient id="grad" x1="0" y1="0" x2="1" y2="1">
      <stop offset="0%" stop-color="#25D366"></stop>
      <stop offset="100%" stop-color="#128C7E"></stop>
    </linearGradient>
  </defs>
  <circle cx="128" cy="128" r="128" fill="url(#grad)"></circle>
  <path fill="#FFFFFF" d="M187.6 68.4C174.3 55 156.8 48 138 48c-37.9 0-69 30.9-69 69 0 12.1 3.2 23.9 9.2 34.4L70 200l49.8-13c10.1 5.6 21.5 8.5 33.2 8.5 37.9 0 69-30.9 69-69 0-18.9-7.4-36.6-20.4-49.6zM138 186c-10.1 0-20.1-2.6-28.8-7.6l-2-1.1-29.5 7.8 7.9-28.7-1.3-2.1C77.6 144.6 74 133.5 74 122c0-35.3 28.7-64 64-64 17.1 0 33.1 6.6 45.1 18.7 12 12 18.9 28 18.9 45.3 0 35.3-28.7 64-64 64zm36.7-47.5c-2-1-11.8-5.8-13.6-6.4-1.8-.6-3.1-1-4.4 1s-5 6.4-6.2 7.7c-1.1 1.2-2.3 1.3-4.3.4-2-.9-8.5-3.1-16.2-9.9-6-5.3-10.1-11.9-11.3-13.9s-.1-3.1.8-4.1c.8-.8 2-2.3 3-3.4 1-1.1 1.3-1.9 2-3.1.7-1.2.4-2.3 0-3.2-.4-1-4.4-10.6-6-14.5-1.6-3.9-3.3-3.4-4.4-3.5-1.1-.1-2.3-.1-3.5-.1-1.2 0-3.2.5-4.8 2.3s-6.3 6.1-6.3 15 6.4 17.4 7.3 18.6c.9 1.2 12.5 19.1 30.4 26.8 4.2 1.8 7.5 2.9 10.1 3.7 4.2 1.3 8 .9 11 .5 3.4-.5 10.6-4.3 12.1-8.5 1.5-4.1 1.5-7.7 1-8.5-.5-.9-1.8-1.5-3.8-2.5z"></path>
</svg>
